<svg width="51" height="51" viewBox="0 0 51 51" fill="none" xmlns="http://www.w3.org/2000/svg">
<path d="M49.8606 45.9724L40.3123 36.4521C43.393 32.5273 45.0646 27.6807 45.0583 22.6913C45.0583 18.2478 43.7407 13.9041 41.272 10.2095C38.8034 6.51485 35.2945 3.63524 31.1893 1.93479C27.0841 0.234344 22.5668 -0.210571 18.2086 0.656311C13.8505 1.52319 9.84736 3.66293 6.70535 6.80495C3.56333 9.94697 1.42358 13.9502 0.556701 18.3083C-0.31018 22.6664 0.134735 27.1837 1.83518 31.2889C3.53563 35.3942 6.41524 38.903 10.1099 41.3716C13.8045 43.8403 18.1482 45.158 22.5917 45.158C27.5811 45.1642 32.4277 43.4926 36.3525 40.4119L45.8728 49.9602C46.1338 50.2234 46.4444 50.4324 46.7867 50.5749C47.1289 50.7175 47.4959 50.7909 47.8667 50.7909C48.2374 50.7909 48.6045 50.7175 48.9467 50.5749C49.2889 50.4324 49.5995 50.2234 49.8606 49.9602C50.1238 49.6991 50.3327 49.3885 50.4753 49.0463C50.6179 48.7041 50.6913 48.337 50.6913 47.9663C50.6913 47.5956 50.6179 47.2285 50.4753 46.8863C50.3327 46.544 50.1238 46.2334 49.8606 45.9724ZM5.74168 22.6913C5.74168 19.3587 6.72991 16.1009 8.58141 13.3299C10.4329 10.559 13.0645 8.39925 16.1435 7.12392C19.2224 5.84858 22.6104 5.51489 25.8789 6.16505C29.1475 6.81522 32.1499 8.42002 34.5064 10.7765C36.8629 13.1331 38.4678 16.1354 39.1179 19.404C39.7681 22.6726 39.4344 26.0606 38.1591 29.1395C36.8837 32.2184 34.724 34.85 31.953 36.7015C29.1821 38.5531 25.9243 39.5413 22.5917 39.5413C18.1228 39.5413 13.8369 37.766 10.6769 34.606C7.51694 31.446 5.74168 27.1602 5.74168 22.6913Z" fill="#919EAB"/>
</svg>
