<svg width="265" height="261" viewBox="0 0 265 261" fill="none" xmlns="http://www.w3.org/2000/svg">
<path d="M105.875 156.362L22.3266 189.715C17.0429 191.916 12.0366 191.423 7.30772 188.235C2.57883 185.048 0.209978 180.587 0.201172 174.855V167.589C0.201172 164.948 0.808795 162.416 2.02404 159.994C3.23929 157.573 4.94327 155.591 7.136 154.05L105.875 85.032V26.9116C105.875 19.6465 108.464 13.4294 113.642 8.26019C118.82 3.091 125.037 0.501993 132.293 0.493186C139.549 0.48438 145.771 3.07338 150.958 8.26019C156.145 13.447 158.729 19.6641 158.711 26.9116V85.032L257.45 154.05C259.652 155.591 261.36 157.573 262.575 159.994C263.791 162.416 264.394 164.948 264.385 167.589V174.855C264.385 180.579 262.021 185.039 257.292 188.235C252.563 191.432 247.552 191.925 242.26 189.715L158.711 156.362V203.915L192.725 227.691C194.486 229.012 195.865 230.611 196.86 232.486C197.855 234.362 198.348 236.396 198.339 238.589V246.514C198.339 250.917 196.521 254.497 192.884 257.254C189.247 260.01 185.231 260.723 180.837 259.393L132.293 244.863L83.7493 259.393C79.3463 260.714 75.3263 260.001 71.6893 257.254C68.0524 254.506 66.2383 250.926 66.2471 246.514V238.589C66.2471 236.387 66.7447 234.353 67.7398 232.486C68.7349 230.619 70.1086 229.021 71.861 227.691L105.875 203.915V156.362Z" fill="#D0DF00"/>
</svg>
