<svg width="187" height="187" viewBox="0 0 187 187" fill="none" xmlns="http://www.w3.org/2000/svg">
<path d="M29.9263 17.0171C46.4205 7.51387 68.7937 0.893555 93.3084 0.893555C117.823 0.893555 140.196 7.51387 156.691 17.0171C164.927 21.7738 172.011 27.416 177.149 33.6451C182.194 39.7712 185.972 47.2152 185.972 55.3181C185.972 63.4726 182.06 69.8561 175.779 74.0671C170.178 77.8252 162.909 79.7608 155.383 80.9346C149.411 81.8612 142.42 82.4275 134.595 82.757L126.503 83.0246L117.885 83.1791L108.773 83.2409H77.8438L68.7319 83.1791L60.1142 83.0246L52.0215 82.757C45.0648 82.5198 38.1258 81.9114 31.2339 80.9346C23.7178 79.7608 16.4386 77.8252 10.8376 74.0671C4.55701 69.8458 0.644531 63.4623 0.644531 55.3181C0.644531 47.2152 4.41286 39.7712 9.46819 33.6451C14.6059 27.4263 21.6792 21.7738 29.9263 17.0171ZM14.4 92.6102C19.4736 89.2281 25.4349 87.4233 31.5325 87.4233C37.6301 87.4233 43.5913 89.2281 48.665 92.6102L56.7062 97.9641C58.3981 99.093 60.3865 99.6954 62.4205 99.6954C64.4544 99.6954 66.4428 99.093 68.1347 97.9641L76.1656 92.6102C81.2414 89.2237 87.2066 87.4164 93.3084 87.4164C99.4103 87.4164 105.375 89.2237 110.451 92.6102L118.482 97.9641C120.174 99.093 122.162 99.6954 124.196 99.6954C126.23 99.6954 128.219 99.093 129.911 97.9641L137.942 92.6102C143.017 89.2237 148.982 87.4164 155.084 87.4164C161.186 87.4164 167.151 89.2237 172.227 92.6102L181.741 98.9525C182.866 99.7029 183.832 100.668 184.584 101.791C185.336 102.915 185.859 104.176 186.124 105.502C186.389 106.828 186.39 108.193 186.127 109.52C185.865 110.846 185.343 112.108 184.593 113.233C183.842 114.358 182.878 115.324 181.754 116.076C180.63 116.828 179.369 117.352 178.043 117.617C176.717 117.881 175.352 117.883 174.025 117.62C172.699 117.357 171.437 116.835 170.312 116.085L160.799 109.743C159.107 108.614 157.118 108.011 155.084 108.011C153.05 108.011 151.062 108.614 149.37 109.743L141.339 115.097C136.263 118.483 130.298 120.29 124.196 120.29C118.095 120.29 112.129 118.483 107.054 115.097L99.0227 109.743C97.3308 108.614 95.3424 108.011 93.3084 108.011C91.2745 108.011 89.2861 108.614 87.5941 109.743L79.5633 115.097C74.4875 118.483 68.5223 120.29 62.4205 120.29C56.3186 120.29 50.3535 118.483 45.2776 115.097L37.2468 109.743C35.5548 108.614 33.5664 108.011 31.5325 108.011C29.4985 108.011 27.5102 108.614 25.8182 109.743L22.1426 112.276C20.1863 113.614 17.9212 115.107 15.7385 116.26C13.3304 117.461 10.5482 117.671 7.98719 116.845C5.42621 116.02 3.29003 114.225 2.03587 111.845C0.781714 109.464 0.509241 106.687 1.27678 104.109C2.04431 101.53 3.79086 99.3538 6.14259 98.0465C6.87704 97.6621 7.57716 97.2503 8.24297 96.811L14.4 92.6102ZM10.9405 124.445C8.20985 124.445 5.59103 125.53 3.66016 127.461C1.72928 129.392 0.644531 132.011 0.644531 134.741V145.037C0.644531 155.96 4.98354 166.435 12.707 174.159C20.4305 181.882 30.9058 186.221 41.8285 186.221H144.788C155.711 186.221 166.186 181.882 173.91 174.159C181.633 166.435 185.972 155.96 185.972 145.037V134.741C185.972 132.011 184.888 129.392 182.957 127.461C181.026 125.53 178.407 124.445 175.676 124.445H10.9405Z" fill="white"/>
</svg>
